<svg version="1.1" xmlns="http://www.w3.org/2000/svg" viewBox="0 0 2773.0987005334537 576.4458226010975" width="2773.0987005334537" height="576.4458226010975">
  <!-- svg-source:excalidraw -->
  
  <defs>
    <style class="style-fonts">
      @font-face {
        font-family: "Virgil";
        src: url("https://excalidraw.com/Virgil.woff2");
      }
      @font-face {
        font-family: "Cascadia";
        src: url("https://excalidraw.com/Cascadia.woff2");
      }
      @font-face {
        font-family: "Assistant";
        src: url("https://excalidraw.com/Assistant-Regular.woff2");
      }
    </style>
    
  </defs>
  <rect x="0" y="0" width="2773.0987005334537" height="576.4458226010975" fill="#ffffff"></rect><g stroke-linecap="round" transform="translate(2164.3965844078493 10) rotate(0 299.35105806280217 195.91465884165808)"><path d="M32 0 C199.66 0, 367.32 0, 566.7 0 C588.04 0, 598.7 10.67, 598.7 32 C598.7 152.83, 598.7 273.66, 598.7 359.83 C598.7 381.16, 588.04 391.83, 566.7 391.83 C355.34 391.83, 143.97 391.83, 32 391.83 C10.67 391.83, 0 381.16, 0 359.83 C0 293.14, 0 226.45, 0 32 C0 10.67, 10.67 0, 32 0" stroke="none" stroke-width="0" fill="#ffec99"></path><path d="M32 0 C161.33 0, 290.65 0, 566.7 0 M32 0 C175.87 0, 319.74 0, 566.7 0 M566.7 0 C588.04 0, 598.7 10.67, 598.7 32 M566.7 0 C588.04 0, 598.7 10.67, 598.7 32 M598.7 32 C598.7 136.16, 598.7 240.32, 598.7 359.83 M598.7 32 C598.7 108.74, 598.7 185.47, 598.7 359.83 M598.7 359.83 C598.7 381.16, 588.04 391.83, 566.7 391.83 M598.7 359.83 C598.7 381.16, 588.04 391.83, 566.7 391.83 M566.7 391.83 C416.74 391.83, 266.77 391.83, 32 391.83 M566.7 391.83 C369.52 391.83, 172.33 391.83, 32 391.83 M32 391.83 C10.67 391.83, 0 381.16, 0 359.83 M32 391.83 C10.67 391.83, 0 381.16, 0 359.83 M0 359.83 C0 246.55, 0 133.27, 0 32 M0 359.83 C0 235.51, 0 111.2, 0 32 M0 32 C0 10.67, 10.67 0, 32 0 M0 32 C0 10.67, 10.67 0, 32 0" stroke="#1e1e1e" stroke-width="2" fill="none"></path></g><g stroke-linecap="round" transform="translate(2109.3474466847583 62.42926741457734) rotate(0 302.640351329087 192.6253655753736)"><path d="M32 0 C145.85 0, 259.7 0, 573.28 0 C594.61 0, 605.28 10.67, 605.28 32 C605.28 120.02, 605.28 208.03, 605.28 353.25 C605.28 374.58, 594.61 385.25, 573.28 385.25 C427.91 385.25, 282.54 385.25, 32 385.25 C10.67 385.25, 0 374.58, 0 353.25 C0 267.55, 0 181.85, 0 32 C0 10.67, 10.67 0, 32 0" stroke="none" stroke-width="0" fill="#ffec99"></path><path d="M32 0 C190.85 0, 349.7 0, 573.28 0 M32 0 C178.55 0, 325.1 0, 573.28 0 M573.28 0 C594.61 0, 605.28 10.67, 605.28 32 M573.28 0 C594.61 0, 605.28 10.67, 605.28 32 M605.28 32 C605.28 152.56, 605.28 273.12, 605.28 353.25 M605.28 32 C605.28 138.57, 605.28 245.14, 605.28 353.25 M605.28 353.25 C605.28 374.58, 594.61 385.25, 573.28 385.25 M605.28 353.25 C605.28 374.58, 594.61 385.25, 573.28 385.25 M573.28 385.25 C383.42 385.25, 193.56 385.25, 32 385.25 M573.28 385.25 C399.18 385.25, 225.09 385.25, 32 385.25 M32 385.25 C10.67 385.25, 0 374.58, 0 353.25 M32 385.25 C10.67 385.25, 0 374.58, 0 353.25 M0 353.25 C0 257.83, 0 162.41, 0 32 M0 353.25 C0 256.41, 0 159.57, 0 32 M0 32 C0 10.67, 10.67 0, 32 0 M0 32 C0 10.67, 10.67 0, 32 0" stroke="#1e1e1e" stroke-width="2" fill="none"></path></g><g transform="translate(2183.9211323644313 209.46367063541328) rotate(0 228.06666564941406 45.59096235453765)"><text x="228.06666564941406" y="0" font-family="Helvetica, Segoe UI Emoji" font-size="39.64431509090231px" fill="#1e1e1e" text-anchor="middle" style="white-space: pre;" direction="ltr" dominant-baseline="text-before-edge">PaymentGateway Service</text><text x="228.06666564941406" y="45.59096235453765" font-family="Helvetica, Segoe UI Emoji" font-size="39.64431509090231px" fill="#1e1e1e" text-anchor="middle" style="white-space: pre;" direction="ltr" dominant-baseline="text-before-edge"></text></g><g stroke-linecap="round" transform="translate(146.20468056003847 45.31633176672494) rotate(0 179.08252107960607 157.0307823252761)"><path d="M32 0 C108.54 0, 185.07 0, 326.17 0 C347.5 0, 358.17 10.67, 358.17 32 C358.17 111.6, 358.17 191.21, 358.17 282.06 C358.17 303.39, 347.5 314.06, 326.17 314.06 C260.08 314.06, 193.99 314.06, 32 314.06 C10.67 314.06, 0 303.39, 0 282.06 C0 220.74, 0 159.41, 0 32 C0 10.67, 10.67 0, 32 0" stroke="none" stroke-width="0" fill="#e9ecef"></path><path d="M32 0 C109.17 0, 186.34 0, 326.17 0 M32 0 C149.27 0, 266.55 0, 326.17 0 M326.17 0 C347.5 0, 358.17 10.67, 358.17 32 M326.17 0 C347.5 0, 358.17 10.67, 358.17 32 M358.17 32 C358.17 86.34, 358.17 140.69, 358.17 282.06 M358.17 32 C358.17 103.56, 358.17 175.12, 358.17 282.06 M358.17 282.06 C358.17 303.39, 347.5 314.06, 326.17 314.06 M358.17 282.06 C358.17 303.39, 347.5 314.06, 326.17 314.06 M326.17 314.06 C238.77 314.06, 151.37 314.06, 32 314.06 M326.17 314.06 C261.3 314.06, 196.43 314.06, 32 314.06 M32 314.06 C10.67 314.06, 0 303.39, 0 282.06 M32 314.06 C10.67 314.06, 0 303.39, 0 282.06 M0 282.06 C0 184.9, 0 87.74, 0 32 M0 282.06 C0 182.88, 0 83.69, 0 32 M0 32 C0 10.67, 10.67 0, 32 0 M0 32 C0 10.67, 10.67 0, 32 0" stroke="transparent" stroke-width="4" fill="none"></path></g><g stroke-linecap="round" transform="translate(225.26957385488095 153.9084059068682) rotate(0 73.24894918919972 70.79540419900668)"><path d="M0 0 L146.5 0 L146.5 141.59 L0 141.59" stroke="none" stroke-width="0" fill="#b2f2bb"></path><path d="M0 0 C40.76 0, 81.52 0, 146.5 0 M0 0 C49.52 0, 99.04 0, 146.5 0 M146.5 0 C146.5 53.14, 146.5 106.27, 146.5 141.59 M146.5 0 C146.5 46.97, 146.5 93.94, 146.5 141.59 M146.5 141.59 C103.61 141.59, 60.73 141.59, 0 141.59 M146.5 141.59 C89.16 141.59, 31.83 141.59, 0 141.59 M0 141.59 C0 99.52, 0 57.46, 0 0 M0 141.59 C0 110.37, 0 79.15, 0 0" stroke="#2f9e44" stroke-width="4" fill="none"></path></g><g stroke-linecap="round"><g transform="translate(224.76929638946876 151.75405393325082) rotate(0 98.6028844987618 -25.883489638155538)" fill-rule="evenodd"><path d="M0 0 L48.63 -53.33 L197.21 -51.09 L144.89 1.56 L0 0" stroke="none" stroke-width="0" fill="#b2f2bb" fill-rule="evenodd"></path><path d="M0 0 C13.76 -15.09, 27.52 -30.18, 48.63 -53.33 M0 0 C12.48 -13.68, 24.95 -27.37, 48.63 -53.33 M48.63 -53.33 C92.72 -52.66, 136.82 -52, 197.21 -51.09 M48.63 -53.33 C97.35 -52.59, 146.07 -51.86, 197.21 -51.09 M197.21 -51.09 C176.32 -30.07, 155.44 -9.05, 144.89 1.56 M197.21 -51.09 C181.66 -35.44, 166.11 -19.79, 144.89 1.56 M144.89 1.56 C115.46 1.25, 86.03 0.93, 0 0 M144.89 1.56 C104.64 1.13, 64.39 0.69, 0 0 M0 0 C0 0, 0 0, 0 0 M0 0 C0 0, 0 0, 0 0" stroke="#2f9e44" stroke-width="4" fill="none"></path></g></g><mask></mask><g stroke-linecap="round"><g transform="translate(374.71823469400806 148.63133416268556) rotate(0 26.27480550221935 49.15394885211839)" fill-rule="evenodd"><path d="M0 0 L-0.78 148.17 L53.33 93.09 L49.13 -49.86 L0 0" stroke="none" stroke-width="0" fill="#b2f2bb" fill-rule="evenodd"></path><path d="M0 0 C-0.21 39.64, -0.42 79.28, -0.78 148.17 M0 0 C-0.19 36.74, -0.39 73.48, -0.78 148.17 M-0.78 148.17 C20.65 126.35, 42.09 104.54, 53.33 93.09 M-0.78 148.17 C10.9 136.28, 22.58 124.39, 53.33 93.09 M53.33 93.09 C52.38 60.85, 51.44 28.61, 49.13 -49.86 M53.33 93.09 C51.8 41.13, 50.28 -10.83, 49.13 -49.86 M49.13 -49.86 C37.94 -38.51, 26.75 -27.15, 0 0 M49.13 -49.86 C34.33 -34.84, 19.53 -19.82, 0 0 M0 0 C0 0, 0 0, 0 0 M0 0 C0 0, 0 0, 0 0" stroke="#2f9e44" stroke-width="4" fill="none"></path></g></g><mask></mask><g transform="translate(263.0656340911046 193.37357855590858) rotate(0 42.151123046875 23.60259088700643)"><text x="0" y="0" font-family="Helvetica, Segoe UI Emoji" font-size="41.047984151315525px" fill="#1e1e1e" text-anchor="start" style="white-space: pre;" direction="ltr" dominant-baseline="text-before-edge">SDK</text></g><g stroke-linecap="round" transform="translate(163.33792351976444 196.50124735564668) rotate(95.96448710125308 12.726803195017055 11.817745823944492)"><path d="M25.45 11.82 C25.45 12.5, 25.39 13.2, 25.26 13.87 C25.13 14.54, 24.94 15.22, 24.69 15.86 C24.43 16.5, 24.12 17.13, 23.75 17.73 C23.38 18.32, 22.95 18.89, 22.48 19.41 C22 19.94, 21.47 20.43, 20.91 20.87 C20.34 21.31, 19.73 21.71, 19.09 22.05 C18.45 22.39, 17.77 22.69, 17.08 22.92 C16.39 23.16, 15.66 23.34, 14.94 23.46 C14.21 23.57, 13.46 23.64, 12.73 23.64 C11.99 23.64, 11.24 23.57, 10.52 23.46 C9.79 23.34, 9.07 23.16, 8.37 22.92 C7.68 22.69, 7 22.39, 6.36 22.05 C5.73 21.71, 5.11 21.31, 4.55 20.87 C3.98 20.43, 3.45 19.94, 2.98 19.41 C2.5 18.89, 2.07 18.32, 1.71 17.73 C1.34 17.13, 1.02 16.5, 0.77 15.86 C0.52 15.22, 0.32 14.54, 0.19 13.87 C0.07 13.2, 0 12.5, 0 11.82 C0 11.13, 0.07 10.44, 0.19 9.77 C0.32 9.09, 0.52 8.42, 0.77 7.78 C1.02 7.13, 1.34 6.5, 1.71 5.91 C2.07 5.32, 2.5 4.75, 2.98 4.22 C3.45 3.7, 3.98 3.2, 4.55 2.76 C5.11 2.33, 5.73 1.93, 6.36 1.58 C7 1.24, 7.68 0.95, 8.37 0.71 C9.07 0.48, 9.79 0.3, 10.52 0.18 C11.24 0.06, 11.99 0, 12.73 0 C13.46 0, 14.21 0.06, 14.94 0.18 C15.66 0.3, 16.39 0.48, 17.08 0.71 C17.77 0.95, 18.45 1.24, 19.09 1.58 C19.73 1.93, 20.34 2.33, 20.91 2.76 C21.47 3.2, 22 3.7, 22.48 4.22 C22.95 4.75, 23.38 5.32, 23.75 5.91 C24.12 6.5, 24.43 7.13, 24.69 7.78 C24.94 8.42, 25.13 9.09, 25.26 9.77 C25.39 10.44, 25.42 11.48, 25.45 11.82 C25.49 12.16, 25.49 11.48, 25.45 11.82" stroke="#000000" stroke-width="1" fill="none"></path></g><g stroke-linecap="round"><g transform="translate(134.288931877094 175.26396175149807) rotate(95.96448710125308 0.7666088769929047 28.39130901425078)"><path d="M0 0 C0.26 9.46, 1.28 47.32, 1.53 56.78 M0 0 C0.26 9.46, 1.28 47.32, 1.53 56.78" stroke="#000000" stroke-width="1" fill="none"></path></g></g><mask></mask><g stroke-linecap="round" transform="translate(11.400220214783985 186.65361265710567) rotate(89.86737157398699 13.317247389551994 12.106588535955979)"><path d="M0 0 C0 0, 0 0, 0 0 M0 0 C0 0, 0 0, 0 0 M-0.26 6.4 C1.04 4.9, 2.35 3.4, 4.99 0.36 M-0.26 6.4 C0.97 4.98, 2.21 3.56, 4.99 0.36 M0.13 12.04 C2.7 9.09, 5.26 6.14, 10.63 -0.03 M0.13 12.04 C4.11 7.47, 8.08 2.9, 10.63 -0.03 M-0.13 18.44 C5.87 11.53, 11.87 4.63, 15.62 0.33 M-0.13 18.44 C5.67 11.76, 11.48 5.09, 15.62 0.33 M0.27 24.08 C8.64 14.45, 17 4.83, 21.26 -0.07 M0.27 24.08 C6.14 17.33, 12.01 10.57, 21.26 -0.07 M5.25 24.44 C11.83 16.88, 18.41 9.31, 26.25 0.29 M5.25 24.44 C9.7 19.33, 14.14 14.22, 26.25 0.29 M10.9 24.05 C17.29 16.69, 23.68 9.34, 27.3 5.18 M10.9 24.05 C16.92 17.12, 22.95 10.18, 27.3 5.18 M15.88 24.41 C18.26 21.67, 20.64 18.94, 27.04 11.58 M15.88 24.41 C18.46 21.44, 21.04 18.48, 27.04 11.58 M21.53 24.01 C23.07 22.24, 24.6 20.47, 27.43 17.22 M21.53 24.01 C22.98 22.34, 24.44 20.67, 27.43 17.22 M0.09 24.29 C0.09 24.29, 0.09 24.29, 0.09 24.29 M0.09 24.29 C0.09 24.29, 0.09 24.29, 0.09 24.29 M5.73 23.89 C3.75 22.18, 1.78 20.46, -0.31 18.65 M5.73 23.89 C4.08 22.46, 2.44 21.03, -0.31 18.65 M12.13 24.16 C8.41 20.92, 4.69 17.69, 0.05 13.66 M12.13 24.16 C8.85 21.31, 5.58 18.46, 0.05 13.66 M18.53 24.42 C13.26 19.84, 7.99 15.26, -0.34 8.02 M18.53 24.42 C13.74 20.26, 8.96 16.1, -0.34 8.02 M24.17 24.02 C17.96 18.63, 11.76 13.24, 0.02 3.03 M24.17 24.02 C16.14 17.04, 8.11 10.07, 0.02 3.03 M26.79 21 C19.82 14.95, 12.86 8.89, 1.89 -0.65 M26.79 21 C18.11 13.45, 9.42 5.9, 1.89 -0.65 M27.15 16.02 C21.83 11.39, 16.5 6.76, 8.28 -0.39 M27.15 16.02 C22.43 11.91, 17.71 7.81, 8.28 -0.39 M26.76 10.37 C23.35 7.41, 19.95 4.45, 13.93 -0.78 M26.76 10.37 C22.03 6.26, 17.29 2.15, 13.93 -0.78 M27.12 5.39 C24.61 3.2, 22.1 1.02, 20.33 -0.52 M27.12 5.39 C24.41 3.03, 21.7 0.68, 20.33 -0.52" stroke="#fd7e14" stroke-width="0.5" fill="none"></path><path d="M0 0 C10.04 0, 20.08 0, 26.63 0 M0 0 C8.61 0, 17.23 0, 26.63 0 M26.63 0 C26.63 7.84, 26.63 15.68, 26.63 24.21 M26.63 0 C26.63 8.27, 26.63 16.54, 26.63 24.21 M26.63 24.21 C20.17 24.21, 13.7 24.21, 0 24.21 M26.63 24.21 C19.28 24.21, 11.93 24.21, 0 24.21 M0 24.21 C0 15.26, 0 6.31, 0 0 M0 24.21 C0 15.8, 0 7.39, 0 0" stroke="#000000" stroke-width="1" fill="none"></path></g><g stroke-linecap="round"><g transform="translate(69.10159383095015 168.15184751916195) rotate(95.96448710125308 3.7261036298696126 33.81798337267283)"><path d="M0 0 C1.24 11.27, 6.21 56.36, 7.45 67.64 M0 0 C1.24 11.27, 6.21 56.36, 7.45 67.64" stroke="#000000" stroke-width="1" fill="none"></path></g></g><mask></mask><g stroke-opacity="0.6" fill-opacity="0.6" stroke-linecap="round" transform="translate(1066.2469348318673 61.04809286761008) rotate(0 93.05361063563669 177.97268850264442)"><path d="M9.08 14.52 C9.08 14.52, 9.08 14.52, 9.08 14.52 M9.08 14.52 C9.08 14.52, 9.08 14.52, 9.08 14.52 M3.57 26.95 C8.6 21.17, 13.63 15.38, 22.6 5.07 M3.57 26.95 C7.93 21.94, 12.29 16.92, 22.6 5.07 M1.34 35.62 C9.82 25.86, 18.3 16.11, 30.21 2.41 M1.34 35.62 C10.99 24.52, 20.63 13.42, 30.21 2.41 M0.42 42.77 C7.89 34.18, 15.36 25.59, 37.16 0.51 M0.42 42.77 C10.52 31.15, 20.62 19.53, 37.16 0.51 M0.82 48.41 C16.71 30.13, 32.6 11.85, 42.81 0.11 M0.82 48.41 C10.46 37.32, 20.1 26.23, 42.81 0.11 M0.56 54.81 C14.99 38.21, 29.42 21.61, 47.79 0.47 M0.56 54.81 C18.02 34.72, 35.49 14.62, 47.79 0.47 M0.95 60.45 C15.82 43.35, 30.68 26.25, 53.44 0.08 M0.95 60.45 C19.21 39.45, 37.47 18.44, 53.44 0.08 M0.69 66.85 C20.09 44.53, 39.49 22.22, 58.42 0.44 M0.69 66.85 C22.91 41.3, 45.12 15.74, 58.42 0.44 M0.43 73.25 C21.18 49.38, 41.93 25.5, 64.07 0.04 M0.43 73.25 C23.15 47.11, 45.87 20.98, 64.07 0.04 M0.82 78.89 C18.98 58.01, 37.13 37.13, 69.05 0.4 M0.82 78.89 C20.24 56.55, 39.66 34.21, 69.05 0.4 M0.56 85.29 C17.72 65.56, 34.87 45.82, 74.7 0.01 M0.56 85.29 C16.76 66.66, 32.96 48.02, 74.7 0.01 M0.96 90.93 C22.45 66.21, 43.94 41.48, 79.68 0.37 M0.96 90.93 C26.77 61.24, 52.58 31.55, 79.68 0.37 M0.7 97.33 C28.6 65.23, 56.5 33.14, 85.33 -0.03 M0.7 97.33 C33.51 59.58, 66.33 21.83, 85.33 -0.03 M0.43 103.73 C31.04 68.51, 61.65 33.3, 90.31 0.33 M0.43 103.73 C24.4 76.16, 48.37 48.59, 90.31 0.33 M0.83 109.37 C34.86 70.22, 68.9 31.07, 95.96 -0.06 M0.83 109.37 C21.17 85.97, 41.52 62.56, 95.96 -0.06 M0.57 115.77 C26.54 85.9, 52.5 56.02, 100.94 0.3 M0.57 115.77 C35.4 75.69, 70.24 35.62, 100.94 0.3 M0.96 121.41 C28.29 89.97, 55.62 58.53, 106.59 -0.1 M0.96 121.41 C36.85 80.13, 72.74 38.84, 106.59 -0.1 M0.7 127.81 C25.49 99.29, 50.28 70.77, 111.57 0.26 M0.7 127.81 C34.94 88.42, 69.18 49.03, 111.57 0.26 M0.44 134.21 C45.04 82.9, 89.64 31.6, 117.22 -0.13 M0.44 134.21 C35.71 93.63, 70.98 53.06, 117.22 -0.13 M0.83 139.85 C29.68 106.66, 58.53 73.48, 122.2 0.23 M0.83 139.85 C47.61 86.04, 94.39 32.22, 122.2 0.23 M0.57 146.25 C36.57 104.84, 72.57 63.43, 127.85 -0.17 M0.57 146.25 C42.7 97.78, 84.83 49.32, 127.85 -0.17 M0.97 151.89 C41.8 104.92, 82.63 57.94, 132.83 0.19 M0.97 151.89 C41.07 105.76, 81.17 59.62, 132.83 0.19 M0.7 158.29 C45.25 107.04, 89.8 55.8, 138.48 -0.2 M0.7 158.29 C49.05 102.68, 97.39 47.06, 138.48 -0.2 M0.44 164.69 C36.84 122.82, 73.23 80.96, 143.46 0.16 M0.44 164.69 C41.33 117.65, 82.22 70.61, 143.46 0.16 M0.84 170.33 C40.74 124.43, 80.63 78.54, 147.8 1.28 M0.84 170.33 C56.61 106.17, 112.38 42.01, 147.8 1.28 M0.58 176.73 C45.22 125.38, 89.86 74.02, 152.78 1.64 M0.58 176.73 C37.94 133.74, 75.31 90.76, 152.78 1.64 M0.97 182.37 C48.26 127.97, 95.55 73.57, 157.77 2 M0.97 182.37 C52.48 123.12, 103.98 63.87, 157.77 2 M0.71 188.77 C41.47 141.88, 82.22 95, 161.44 3.86 M0.71 188.77 C63.63 116.39, 126.54 44.01, 161.44 3.86 M0.45 195.17 C65.37 120.49, 130.29 45.81, 165.12 5.73 M0.45 195.17 C33.91 156.68, 67.37 118.19, 165.12 5.73 M0.84 200.81 C62.82 129.52, 124.79 58.22, 168.79 7.6 M0.84 200.81 C38.79 157.16, 76.74 113.51, 168.79 7.6 M0.58 207.21 C58.37 140.73, 116.16 74.25, 172.47 9.47 M0.58 207.21 C52.62 147.35, 104.66 87.48, 172.47 9.47 M0.32 213.61 C49.1 157.49, 97.89 101.37, 174.83 12.85 M0.32 213.61 C60.53 144.34, 120.74 75.08, 174.83 12.85 M0.71 219.25 C57.5 153.92, 114.29 88.59, 177.85 15.48 M0.71 219.25 C39.69 174.42, 78.66 129.58, 177.85 15.48 M0.45 225.65 C42.04 177.8, 83.63 129.96, 180.21 18.86 M0.45 225.65 C43.31 176.35, 86.16 127.05, 180.21 18.86 M0.85 231.29 C63.63 159.07, 126.4 86.85, 181.92 22.99 M0.85 231.29 C44.6 180.96, 88.36 130.62, 181.92 22.99 M0.59 237.69 C51.27 179.38, 101.95 121.08, 183.63 27.12 M0.59 237.69 C53.59 176.71, 106.6 115.73, 183.63 27.12 M0.32 244.08 C41.05 197.24, 81.77 150.4, 185.33 31.26 M0.32 244.08 C64.7 170.03, 129.08 95.97, 185.33 31.26 M0.72 249.73 C51.57 191.23, 102.42 132.73, 185.73 36.9 M0.72 249.73 C70.25 169.74, 139.79 89.74, 185.73 36.9 M0.46 256.13 C65.93 180.81, 131.39 105.5, 186.12 42.54 M0.46 256.13 C40.03 210.6, 79.61 165.08, 186.12 42.54 M0.85 261.77 C54.73 199.79, 108.61 137.81, 186.52 48.19 M0.85 261.77 C50.64 204.49, 100.43 147.22, 186.52 48.19 M0.59 268.17 C67.86 190.79, 135.12 113.4, 186.26 54.58 M0.59 268.17 C38.66 224.38, 76.72 180.58, 186.26 54.58 M0.33 274.56 C73.75 190.1, 147.17 105.64, 186.65 60.23 M0.33 274.56 C43.42 224.99, 86.51 175.43, 186.65 60.23 M0.72 280.21 C51.5 221.8, 102.27 163.39, 186.39 66.62 M0.72 280.21 C72.25 197.93, 143.77 115.65, 186.39 66.62 M0.46 286.61 C49.47 230.23, 98.47 173.86, 186.13 73.02 M0.46 286.61 C41.99 238.83, 83.52 191.06, 186.13 73.02 M0.86 292.25 C59.66 224.61, 118.46 156.96, 186.52 78.67 M0.86 292.25 C58.26 226.22, 115.65 160.19, 186.52 78.67 M0.6 298.65 C71.79 216.74, 142.99 134.84, 186.26 85.06 M0.6 298.65 C55.85 235.08, 111.11 171.51, 186.26 85.06 M0.33 305.04 C61.6 234.57, 122.86 164.09, 186.66 90.71 M0.33 305.04 C42.42 256.63, 84.51 208.22, 186.66 90.71 M0.07 311.44 C45.29 259.43, 90.5 207.42, 186.39 97.1 M0.07 311.44 C74.43 225.9, 148.79 140.36, 186.39 97.1 M0.47 317.08 C65.98 241.72, 131.49 166.36, 186.13 103.5 M0.47 317.08 C52.14 257.64, 103.81 198.2, 186.13 103.5 M1.52 321.97 C63.99 250.11, 126.46 178.25, 186.53 109.14 M1.52 321.97 C69.58 243.68, 137.63 165.39, 186.53 109.14 M2.57 326.86 C46.32 276.53, 90.07 226.21, 186.27 115.54 M2.57 326.86 C58.24 262.82, 113.9 198.79, 186.27 115.54 M4.28 331 C71.92 253.18, 139.57 175.36, 186.66 121.19 M4.28 331 C65.81 260.2, 127.35 189.41, 186.66 121.19 M5.98 335.13 C49.33 285.26, 92.69 235.39, 186.4 127.58 M5.98 335.13 C47.56 287.3, 89.14 239.47, 186.4 127.58 M7.69 339.26 C52.5 287.72, 97.31 236.17, 186.14 133.98 M7.69 339.26 C67.47 270.5, 127.24 201.73, 186.14 133.98 M10.05 342.64 C49.06 297.76, 88.07 252.89, 186.53 139.62 M10.05 342.64 C60.29 284.85, 110.53 227.05, 186.53 139.62 M13.07 345.27 C63.85 286.85, 114.63 228.43, 186.27 146.02 M13.07 345.27 C61.84 289.16, 110.61 233.06, 186.27 146.02 M16.09 347.89 C58.32 299.31, 100.55 250.73, 186.01 152.42 M16.09 347.89 C81.27 272.91, 146.44 197.93, 186.01 152.42 M19.76 349.76 C56.15 307.9, 92.54 266.04, 186.4 158.06 M19.76 349.76 C85.08 274.63, 150.39 199.49, 186.4 158.06 M23.44 351.63 C88.03 277.32, 152.63 203.01, 186.14 164.46 M23.44 351.63 C78.56 288.22, 133.68 224.81, 186.14 164.46 M27.11 353.5 C83.56 288.56, 140.01 223.63, 186.54 170.1 M27.11 353.5 C86.83 284.81, 146.54 216.11, 186.54 170.1 M31.45 354.61 C85.19 292.79, 138.93 230.97, 186.28 176.5 M31.45 354.61 C71.03 309.08, 110.61 263.55, 186.28 176.5 M35.78 355.73 C70.93 315.29, 106.08 274.85, 186.01 182.9 M35.78 355.73 C70.59 315.68, 105.4 275.64, 186.01 182.9 M40.76 356.09 C96.92 291.49, 153.08 226.88, 186.41 188.54 M40.76 356.09 C89.31 300.25, 137.85 244.4, 186.41 188.54 M45.75 356.45 C101.64 292.16, 157.52 227.87, 186.15 194.94 M45.75 356.45 C82.16 314.56, 118.57 272.68, 186.15 194.94 M50.74 356.81 C78.65 324.7, 106.56 292.59, 186.54 200.58 M50.74 356.81 C86.67 315.47, 122.61 274.13, 186.54 200.58 M56.38 356.41 C107.36 297.76, 158.35 239.11, 186.28 206.98 M56.38 356.41 C88.5 319.47, 120.61 282.52, 186.28 206.98 M61.37 356.77 C99.55 312.86, 137.72 268.94, 186.02 213.38 M61.37 356.77 C90.81 322.9, 120.25 289.03, 186.02 213.38 M67.01 356.38 C111.15 305.6, 155.29 254.82, 186.41 219.02 M67.01 356.38 C100.31 318.07, 133.61 279.77, 186.41 219.02 M72 356.74 C116.9 305.08, 161.81 253.42, 186.15 225.42 M72 356.74 C109.49 313.61, 146.99 270.47, 186.15 225.42 M77.64 356.34 C109.05 320.22, 140.45 284.09, 186.55 231.06 M77.64 356.34 C113.74 314.81, 149.85 273.28, 186.55 231.06 M82.63 356.7 C121.88 311.55, 161.13 266.4, 186.28 237.46 M82.63 356.7 C115.33 319.09, 148.03 281.47, 186.28 237.46 M88.27 356.31 C118.92 321.06, 149.56 285.8, 186.02 243.86 M88.27 356.31 C115.26 325.26, 142.26 294.2, 186.02 243.86 M93.26 356.67 C128.67 315.93, 164.09 275.19, 186.42 249.5 M93.26 356.67 C117.96 328.25, 142.66 299.84, 186.42 249.5 M98.9 356.28 C117.77 334.57, 136.63 312.87, 186.16 255.9 M98.9 356.28 C123.12 328.42, 147.33 300.56, 186.16 255.9 M103.89 356.64 C130.52 326, 157.16 295.36, 186.55 261.54 M103.89 356.64 C131.92 324.39, 159.95 292.15, 186.55 261.54 M109.53 356.24 C138.24 323.22, 166.95 290.19, 186.29 267.94 M109.53 356.24 C139.78 321.44, 170.03 286.64, 186.29 267.94 M114.52 356.6 C138.5 329.01, 162.49 301.42, 186.03 274.34 M114.52 356.6 C142.6 324.3, 170.68 292, 186.03 274.34 M120.16 356.21 C144.71 327.96, 169.27 299.72, 186.42 279.98 M120.16 356.21 C145.22 327.38, 170.28 298.55, 186.42 279.98 M125.15 356.57 C146.9 331.54, 168.65 306.52, 186.16 286.38 M125.15 356.57 C148.03 330.25, 170.91 303.93, 186.16 286.38 M130.79 356.17 C152.86 330.78, 174.93 305.4, 186.56 292.02 M130.79 356.17 C146.17 338.48, 161.54 320.79, 186.56 292.02 M135.78 356.53 C152.38 337.44, 168.98 318.34, 186.29 298.42 M135.78 356.53 C152.4 337.42, 169.01 318.3, 186.29 298.42 M141.42 356.14 C152.39 343.52, 163.36 330.9, 186.03 304.82 M141.42 356.14 C151.53 344.51, 161.63 332.89, 186.03 304.82 M147.06 355.74 C154.98 346.64, 162.89 337.53, 186.43 310.46 M147.06 355.74 C162.46 338.03, 177.86 320.32, 186.43 310.46 M152.71 355.35 C163.52 342.91, 174.34 330.46, 186.17 316.86 M152.71 355.35 C161.54 345.19, 170.37 335.03, 186.17 316.86 M159.66 353.44 C167.87 344, 176.09 334.55, 184.59 324.77 M159.66 353.44 C169.43 342.2, 179.21 330.96, 184.59 324.77 M169.9 347.77 C172.69 344.55, 175.49 341.34, 181.71 334.18 M169.9 347.77 C173.62 343.48, 177.35 339.2, 181.71 334.18 M14.88 347.18 C14.88 347.18, 14.88 347.18, 14.88 347.18 M14.88 347.18 C14.88 347.18, 14.88 347.18, 14.88 347.18 M28.07 353.34 C23.37 349.25, 18.66 345.17, 4.67 333.01 M28.07 353.34 C23.35 349.24, 18.63 345.13, 4.67 333.01 M35.98 354.92 C29.1 348.94, 22.22 342.96, 2.77 326.05 M35.98 354.92 C22.7 343.38, 9.43 331.84, 2.77 326.05 M42.38 355.18 C32.51 346.61, 22.65 338.03, 0.87 319.1 M42.38 355.18 C32.5 346.59, 22.62 338, 0.87 319.1 M48.77 355.44 C34.33 342.88, 19.88 330.33, 0.47 313.45 M48.77 355.44 C32.54 341.33, 16.3 327.21, 0.47 313.45 M54.42 355.05 C34.11 337.39, 13.8 319.74, 0.08 307.81 M54.42 355.05 C41.79 344.07, 29.17 333.1, 0.08 307.81 M60.81 355.31 C40.79 337.9, 20.77 320.5, 0.44 302.82 M60.81 355.31 C44.5 341.13, 28.19 326.94, 0.44 302.82 M67.21 355.57 C50.88 341.37, 34.55 327.18, 0.04 297.18 M67.21 355.57 C47.93 338.81, 28.65 322.05, 0.04 297.18 M72.86 355.17 C51.73 336.81, 30.6 318.45, 0.4 292.19 M72.86 355.17 C51.05 336.22, 29.24 317.26, 0.4 292.19 M79.25 355.44 C56.61 335.75, 33.97 316.07, 0.01 286.55 M79.25 355.44 C47.69 328, 16.13 300.56, 0.01 286.55 M84.9 355.04 C53.44 327.7, 21.99 300.36, 0.37 281.56 M84.9 355.04 C66.19 338.78, 47.48 322.52, 0.37 281.56 M91.29 355.3 C59.54 327.7, 27.78 300.09, -0.03 275.92 M91.29 355.3 C67.94 335.01, 44.6 314.71, -0.03 275.92 M97.69 355.56 C61.43 324.04, 25.16 292.52, 0.33 270.93 M97.69 355.56 C66.74 328.66, 35.79 301.76, 0.33 270.93 M103.33 355.17 C74.22 329.86, 45.1 304.55, -0.06 265.29 M103.33 355.17 C78.23 333.35, 53.13 311.53, -0.06 265.29 M109.73 355.43 C77.09 327.06, 44.45 298.68, 0.3 260.3 M109.73 355.43 C69.13 320.13, 28.52 284.84, 0.3 260.3 M115.38 355.04 C75.42 320.3, 35.46 285.57, -0.09 254.66 M115.38 355.04 C88.03 331.27, 60.69 307.5, -0.09 254.66 M121.77 355.3 C77.87 317.13, 33.97 278.97, 0.27 249.67 M121.77 355.3 C90.8 328.37, 59.82 301.44, 0.27 249.67 M128.17 355.56 C101.75 332.59, 75.33 309.62, -0.13 244.03 M128.17 355.56 C101.39 332.28, 74.61 309, -0.13 244.03 M133.81 355.16 C83.1 311.08, 32.39 267, 0.23 239.04 M133.81 355.16 C88.75 315.99, 43.68 276.81, 0.23 239.04 M140.21 355.43 C93.53 314.85, 46.86 274.27, -0.16 233.4 M140.21 355.43 C108.86 328.17, 77.5 300.91, -0.16 233.4 M145.86 355.03 C90.86 307.22, 35.86 259.41, 0.2 228.41 M145.86 355.03 C105.06 319.57, 64.27 284.11, 0.2 228.41 M151.5 354.64 C120.67 327.84, 89.84 301.04, -0.2 222.77 M151.5 354.64 C115.22 323.1, 78.94 291.56, -0.2 222.77 M156.39 353.59 C96.13 301.21, 35.87 248.82, 0.16 217.78 M156.39 353.59 C119.16 321.23, 81.94 288.87, 0.16 217.78 M161.27 352.54 C112.77 310.37, 64.27 268.21, 0.52 212.8 M161.27 352.54 C111.7 309.44, 62.13 266.35, 0.52 212.8 M164.65 350.17 C125.03 315.73, 85.41 281.29, 0.13 207.15 M164.65 350.17 C121.68 312.81, 78.7 275.46, 0.13 207.15 M168.79 348.47 C115.27 301.95, 61.75 255.42, 0.49 202.17 M168.79 348.47 C105.34 293.31, 41.89 238.16, 0.49 202.17 M172.17 346.1 C105.74 288.36, 39.32 230.62, 0.09 196.52 M172.17 346.1 C121.97 302.47, 71.78 258.84, 0.09 196.52 M174.79 343.08 C114.09 290.32, 53.39 237.55, 0.45 191.53 M174.79 343.08 C125.15 299.93, 75.5 256.77, 0.45 191.53 M177.41 340.07 C129.42 298.35, 81.43 256.63, 0.06 185.89 M177.41 340.07 C112.43 283.58, 47.45 227.09, 0.06 185.89 M180.04 337.05 C127.09 291.02, 74.15 245, 0.42 180.9 M180.04 337.05 C114.44 280.02, 48.84 223, 0.42 180.9 M181.91 333.37 C118.23 278.02, 54.55 222.66, 0.02 175.26 M181.91 333.37 C142.69 299.28, 103.47 265.18, 0.02 175.26 M183.02 329.04 C134.36 286.74, 85.71 244.44, 0.38 170.27 M183.02 329.04 C138.18 290.06, 93.33 251.08, 0.38 170.27 M184.89 325.37 C131.94 279.33, 78.98 233.3, -0.01 164.63 M184.89 325.37 C136.16 283, 87.42 240.64, -0.01 164.63 M185.25 320.38 C115.34 259.61, 45.43 198.83, 0.35 159.64 M185.25 320.38 C139.63 280.72, 94 241.05, 0.35 159.64 M185.61 315.39 C121.1 259.31, 56.58 203.23, -0.05 154 M185.61 315.39 C143.28 278.59, 100.94 241.78, -0.05 154 M185.97 310.41 C120.81 253.76, 55.65 197.12, 0.31 149.01 M185.97 310.41 C114.75 248.49, 43.52 186.57, 0.31 149.01 M186.33 305.42 C147.6 271.75, 108.87 238.08, -0.08 143.37 M186.33 305.42 C126.55 253.45, 66.77 201.48, -0.08 143.37 M185.94 299.78 C127.92 249.34, 69.9 198.9, 0.28 138.38 M185.94 299.78 C118.24 240.92, 50.54 182.07, 0.28 138.38 M186.3 294.79 C121.48 238.44, 56.65 182.09, -0.11 132.74 M186.3 294.79 C140.28 254.78, 94.26 214.78, -0.11 132.74 M186.66 289.8 C112.77 225.57, 38.88 161.34, 0.25 127.75 M186.66 289.8 C113.57 226.27, 40.49 162.74, 0.25 127.75 M186.26 284.16 C138.87 242.96, 91.48 201.76, -0.15 122.11 M186.26 284.16 C147.91 250.82, 109.56 217.48, -0.15 122.11 M186.62 279.17 C122.77 223.67, 58.92 168.16, 0.21 117.12 M186.62 279.17 C119.17 220.54, 51.72 161.9, 0.21 117.12 M186.23 273.53 C145.16 237.82, 104.08 202.12, -0.18 111.48 M186.23 273.53 C132.15 226.51, 78.06 179.5, -0.18 111.48 M186.59 268.54 C131.2 220.39, 75.8 172.24, 0.18 106.49 M186.59 268.54 C137.42 225.8, 88.26 183.06, 0.18 106.49 M186.2 262.9 C122.08 207.16, 57.96 151.43, 0.54 101.51 M186.2 262.9 C132.97 216.63, 79.75 170.36, 0.54 101.51 M186.56 257.91 C146.91 223.44, 107.26 188.98, 0.14 95.86 M186.56 257.91 C115.48 196.13, 44.41 134.34, 0.14 95.86 M186.16 252.27 C124 198.23, 61.83 144.19, 0.5 90.88 M186.16 252.27 C134.96 207.76, 83.77 163.26, 0.5 90.88 M186.52 247.28 C140.32 207.12, 94.12 166.96, 0.11 85.23 M186.52 247.28 C132.15 200.02, 77.78 152.75, 0.11 85.23 M186.13 241.64 C130.31 193.12, 74.5 144.6, 0.47 80.25 M186.13 241.64 C143.15 204.28, 100.17 166.92, 0.47 80.25 M186.49 236.65 C117.97 177.09, 49.46 117.54, 0.07 74.6 M186.49 236.65 C136.91 193.55, 87.34 150.46, 0.07 74.6 M186.09 231.01 C119.11 172.78, 52.13 114.56, 0.43 69.62 M186.09 231.01 C144.93 195.22, 103.76 159.44, 0.43 69.62 M186.45 226.02 C122.52 170.44, 58.59 114.87, 0.04 63.97 M186.45 226.02 C136.34 182.46, 86.23 138.9, 0.04 63.97 M186.06 220.38 C141.57 181.71, 97.09 143.04, 0.4 58.99 M186.06 220.38 C147.42 186.79, 108.78 153.2, 0.4 58.99 M186.42 215.39 C120.88 158.42, 55.34 101.45, 0 53.34 M186.42 215.39 C119.53 157.25, 52.64 99.1, 0 53.34 M186.02 209.75 C136.33 166.55, 86.63 123.35, 0.36 48.36 M186.02 209.75 C140.35 170.04, 94.68 130.34, 0.36 48.36 M186.38 204.76 C116.38 143.91, 46.38 83.05, 0.72 43.37 M186.38 204.76 C132.89 158.26, 79.39 111.75, 0.72 43.37 M185.99 199.12 C115.39 137.75, 44.8 76.38, 1.08 38.38 M185.99 199.12 C133.38 153.38, 80.76 107.65, 1.08 38.38 M186.35 194.13 C147.64 160.48, 108.93 126.83, 1.44 33.4 M186.35 194.13 C130.35 145.45, 74.36 96.78, 1.44 33.4 M186.71 189.14 C126.85 137.11, 66.99 85.07, 2.56 29.06 M186.71 189.14 C119.2 130.46, 51.7 71.78, 2.56 29.06 M186.31 183.5 C141.63 144.66, 96.95 105.81, 3.67 24.73 M186.31 183.5 C123.74 129.1, 61.16 74.7, 3.67 24.73 M186.67 178.51 C141.98 139.66, 97.28 100.8, 5.54 21.06 M186.67 178.51 C145.24 142.5, 103.81 106.48, 5.54 21.06 M186.28 172.87 C135.23 128.49, 84.18 84.12, 7.41 17.38 M186.28 172.87 C143.17 135.4, 100.06 97.92, 7.41 17.38 M186.64 167.88 C132.99 121.25, 79.35 74.61, 9.28 13.71 M186.64 167.88 C133.19 121.42, 79.73 74.95, 9.28 13.71 M186.25 162.24 C127.18 110.89, 68.11 59.55, 12.66 11.35 M186.25 162.24 C129.79 113.17, 73.34 64.09, 12.66 11.35 M186.61 157.25 C143.09 119.42, 99.57 81.59, 15.29 8.33 M186.61 157.25 C133.72 111.28, 80.84 65.31, 15.29 8.33 M186.21 151.61 C148.81 119.1, 111.4 86.58, 19.42 6.62 M186.21 151.61 C150.14 120.25, 114.06 88.89, 19.42 6.62 M186.57 146.62 C142.44 108.26, 98.31 69.9, 22.8 4.26 M186.57 146.62 C142.61 108.41, 98.65 70.19, 22.8 4.26 M186.18 140.98 C129.09 91.36, 72 41.73, 26.93 2.55 M186.18 140.98 C149.72 109.29, 113.27 77.6, 26.93 2.55 M186.54 135.99 C136.55 92.54, 86.56 49.08, 31.82 1.5 M186.54 135.99 C141.31 96.68, 96.09 57.37, 31.82 1.5 M186.14 130.35 C130.51 81.99, 74.87 33.63, 35.95 -0.21 M186.14 130.35 C130.33 81.83, 74.52 33.32, 35.95 -0.21 M186.5 125.36 C129.19 75.54, 71.88 25.72, 41.6 -0.6 M186.5 125.36 C130.62 76.78, 74.73 28.2, 41.6 -0.6 M186.11 119.72 C145.53 84.45, 104.96 49.18, 48 -0.34 M186.11 119.72 C138.23 78.1, 90.35 36.48, 48 -0.34 M186.47 114.73 C150.34 83.33, 114.22 51.93, 54.39 -0.08 M186.47 114.73 C153.76 86.3, 121.06 57.87, 54.39 -0.08 M186.07 109.09 C139.63 68.72, 93.19 28.35, 60.04 -0.47 M186.07 109.09 C141.96 70.74, 97.85 32.4, 60.04 -0.47 M186.43 104.1 C144.41 67.57, 102.39 31.04, 66.43 -0.21 M186.43 104.1 C153.91 75.83, 121.38 47.55, 66.43 -0.21 M186.79 99.12 C159.36 75.27, 131.93 51.43, 72.83 0.05 M186.79 99.12 C155.86 72.23, 124.93 45.34, 72.83 0.05 M186.4 93.47 C162.13 72.38, 137.87 51.28, 78.47 -0.34 M186.4 93.47 C149.43 61.33, 112.45 29.19, 78.47 -0.34 M186.76 88.49 C149.78 56.34, 112.81 24.2, 84.87 -0.08 M186.76 88.49 C156.76 62.41, 126.77 36.34, 84.87 -0.08 M186.36 82.84 C157.32 57.59, 128.27 32.35, 90.52 -0.48 M186.36 82.84 C163.11 62.63, 139.86 42.42, 90.52 -0.48 M186.72 77.86 C151.36 47.11, 115.99 16.37, 96.91 -0.22 M186.72 77.86 C160.12 54.73, 133.52 31.61, 96.91 -0.22 M186.33 72.21 C153.41 43.59, 120.48 14.97, 103.31 0.05 M186.33 72.21 C165.98 54.52, 145.63 36.83, 103.31 0.05 M186.69 67.23 C155.73 40.31, 124.77 13.4, 108.95 -0.35 M186.69 67.23 C167.43 50.48, 148.17 33.74, 108.95 -0.35 M186.29 61.58 C163.34 41.63, 140.39 21.68, 115.35 -0.09 M186.29 61.58 C163.72 41.96, 141.15 22.34, 115.35 -0.09 M186.65 56.6 C170.4 42.47, 154.15 28.34, 121 -0.48 M186.65 56.6 C172.61 44.39, 158.57 32.18, 121 -0.48 M186.26 50.95 C168.11 35.18, 149.97 19.4, 127.39 -0.22 M186.26 50.95 C167.23 34.41, 148.2 17.87, 127.39 -0.22 M186.62 45.97 C175.05 35.9, 163.47 25.84, 133.79 0.04 M186.62 45.97 C167.97 29.75, 149.31 13.54, 133.79 0.04 M186.23 40.32 C168.39 24.81, 150.54 9.3, 139.43 -0.35 M186.23 40.32 C176.13 31.54, 166.03 22.76, 139.43 -0.35 M185.08 34.02 C169.81 20.76, 154.55 7.49, 146.59 0.56 M185.08 34.02 C172.85 23.4, 160.63 12.77, 146.59 0.56 M183.17 27.07 C172.01 17.36, 160.84 7.65, 153.74 1.48 M183.17 27.07 C175.96 20.8, 168.75 14.53, 153.74 1.48 M180.51 19.46 C175.83 15.38, 171.14 11.31, 163.16 4.37 M180.51 19.46 C176.12 15.63, 171.72 11.81, 163.16 4.37" stroke="#fab005" stroke-width="0.5" fill="none"></path><path d="M46.53 0 C83.01 0, 119.5 0, 139.58 0 M46.53 0 C68.87 0, 91.22 0, 139.58 0 M139.58 0 C170.6 0, 186.11 15.51, 186.11 46.53 M139.58 0 C170.6 0, 186.11 15.51, 186.11 46.53 M186.11 46.53 C186.11 151.47, 186.11 256.41, 186.11 309.42 M186.11 46.53 C186.11 124.65, 186.11 202.78, 186.11 309.42 M186.11 309.42 C186.11 340.44, 170.6 355.95, 139.58 355.95 M186.11 309.42 C186.11 340.44, 170.6 355.95, 139.58 355.95 M139.58 355.95 C105.94 355.95, 72.29 355.95, 46.53 355.95 M139.58 355.95 C106.03 355.95, 72.47 355.95, 46.53 355.95 M46.53 355.95 C15.51 355.95, 0 340.44, 0 309.42 M46.53 355.95 C15.51 355.95, 0 340.44, 0 309.42 M0 309.42 C0 213.27, 0 117.13, 0 46.53 M0 309.42 C0 222.15, 0 134.87, 0 46.53 M0 46.53 C0 15.51, 15.51 0, 46.53 0 M0 46.53 C0 15.51, 15.51 0, 46.53 0" stroke="#e67700" stroke-width="1" fill="none"></path></g><g stroke-opacity="0.6" fill-opacity="0.6" stroke-linecap="round" transform="translate(1172.1985369173126 215.3032866650721) rotate(0 20.081211706889462 19.463328269754186)"><path d="M4.81 6.83 C4.81 6.83, 4.81 6.83, 4.81 6.83 M4.81 6.83 C4.81 6.83, 4.81 6.83, 4.81 6.83 M0.61 17.75 C4.83 12.89, 9.06 8.03, 15.04 1.15 M0.61 17.75 C6.26 11.26, 11.91 4.76, 15.04 1.15 M1 23.4 C6.85 16.67, 12.7 9.94, 20.68 0.76 M1 23.4 C5.34 18.4, 9.68 13.41, 20.68 0.76 M2.05 28.29 C7.79 21.69, 13.52 15.09, 25.67 1.12 M2.05 28.29 C7.45 22.07, 12.85 15.86, 25.67 1.12 M4.42 31.66 C11.51 23.5, 18.61 15.34, 29.35 2.99 M4.42 31.66 C9.87 25.4, 15.31 19.13, 29.35 2.99 M7.44 34.29 C17.42 22.8, 27.41 11.31, 33.02 4.86 M7.44 34.29 C14.45 26.22, 21.46 18.16, 33.02 4.86 M10.45 36.91 C16.92 29.47, 23.39 22.03, 36.04 7.48 M10.45 36.91 C16.77 29.65, 23.09 22.38, 36.04 7.48 M14.79 38.03 C19.58 32.51, 24.38 26.99, 38.4 10.86 M14.79 38.03 C20.58 31.36, 26.37 24.7, 38.4 10.86 M19.12 39.14 C25.89 31.35, 32.67 23.55, 40.11 14.99 M19.12 39.14 C25.84 31.41, 32.56 23.67, 40.11 14.99 M24.1 39.5 C29.71 33.06, 35.31 26.61, 39.85 21.39 M24.1 39.5 C29.68 33.09, 35.25 26.68, 39.85 21.39 M7.2 34.4 C7.2 34.4, 7.2 34.4, 7.2 34.4 M7.2 34.4 C7.2 34.4, 7.2 34.4, 7.2 34.4 M18.13 38.59 C12.67 33.85, 7.2 29.1, 1.52 24.16 M18.13 38.59 C13.05 34.18, 7.97 29.77, 1.52 24.16 M23.77 38.2 C17.12 32.42, 10.47 26.64, 0.37 17.86 M23.77 38.2 C16.05 31.49, 8.34 24.79, 0.37 17.86 M28.66 37.15 C22.98 32.21, 17.3 27.27, 1.49 13.53 M28.66 37.15 C20.52 30.07, 12.38 23, 1.49 13.53 M32.04 34.79 C24.69 28.4, 17.35 22.02, 2.6 9.2 M32.04 34.79 C21.32 25.47, 10.6 16.15, 2.6 9.2 M35.42 32.42 C26.68 24.83, 17.94 17.23, 5.23 6.18 M35.42 32.42 C28.53 26.43, 21.64 20.44, 5.23 6.18 M37.28 28.75 C29.72 22.17, 22.16 15.6, 8.61 3.82 M37.28 28.75 C30.4 22.77, 23.52 16.78, 8.61 3.82 M39.91 25.73 C32.39 19.19, 24.86 12.65, 11.98 1.46 M39.91 25.73 C32.13 18.97, 24.36 12.21, 11.98 1.46 M40.27 20.74 C33.73 15.06, 27.19 9.37, 16.87 0.4 M40.27 20.74 C34.63 15.84, 29 10.94, 16.87 0.4 M40.63 15.76 C36.02 11.75, 31.41 7.74, 22.52 0.01 M40.63 15.76 C34.64 10.55, 28.65 5.35, 22.52 0.01" stroke="#fab005" stroke-width="0.5" fill="none"></path><path d="M40.16 19.46 C40.16 20.59, 40.06 21.73, 39.86 22.84 C39.66 23.95, 39.35 25.06, 38.95 26.12 C38.55 27.18, 38.05 28.22, 37.47 29.19 C36.89 30.17, 36.21 31.11, 35.46 31.97 C34.72 32.84, 33.88 33.65, 32.99 34.37 C32.1 35.1, 31.13 35.76, 30.12 36.32 C29.12 36.88, 28.04 37.37, 26.95 37.75 C25.86 38.14, 24.71 38.44, 23.57 38.63 C22.42 38.83, 21.24 38.93, 20.08 38.93 C18.92 38.93, 17.74 38.83, 16.59 38.63 C15.45 38.44, 14.31 38.14, 13.21 37.75 C12.12 37.37, 11.05 36.88, 10.04 36.32 C9.03 35.76, 8.06 35.1, 7.17 34.37 C6.28 33.65, 5.45 32.84, 4.7 31.97 C3.95 31.11, 3.27 30.17, 2.69 29.19 C2.11 28.22, 1.61 27.18, 1.21 26.12 C0.81 25.06, 0.51 23.95, 0.31 22.84 C0.1 21.73, 0 20.59, 0 19.46 C0 18.34, 0.1 17.19, 0.31 16.08 C0.51 14.97, 0.81 13.87, 1.21 12.81 C1.61 11.75, 2.11 10.71, 2.69 9.73 C3.27 8.76, 3.95 7.82, 4.7 6.95 C5.45 6.09, 6.28 5.28, 7.17 4.55 C8.06 3.83, 9.03 3.17, 10.04 2.61 C11.05 2.04, 12.12 1.56, 13.21 1.17 C14.31 0.79, 15.45 0.49, 16.59 0.3 C17.74 0.1, 18.92 0, 20.08 0 C21.24 0, 22.42 0.1, 23.57 0.3 C24.71 0.49, 25.86 0.79, 26.95 1.17 C28.04 1.56, 29.12 2.04, 30.12 2.61 C31.13 3.17, 32.1 3.83, 32.99 4.55 C33.88 5.28, 34.72 6.09, 35.46 6.95 C36.21 7.82, 36.89 8.76, 37.47 9.73 C38.05 10.71, 38.55 11.75, 38.95 12.81 C39.35 13.87, 39.66 14.97, 39.86 16.08 C40.06 17.19, 40.11 18.9, 40.16 19.46 C40.21 20.03, 40.21 18.9, 40.16 19.46" stroke="#e67700" stroke-width="1" fill="none"></path></g><g stroke-opacity="0.6" fill-opacity="0.6" stroke-linecap="round" transform="translate(1093.7500870680424 209.0125438698269) rotate(0 20.081211706889462 19.463328269754186)"><path d="M4.81 6.83 C4.81 6.83, 4.81 6.83, 4.81 6.83 M4.81 6.83 C4.81 6.83, 4.81 6.83, 4.81 6.83 M0.61 17.75 C6.37 11.13, 12.13 4.5, 15.04 1.15 M0.61 17.75 C4.9 12.82, 9.19 7.89, 15.04 1.15 M1 23.4 C5 18.8, 9 14.2, 20.68 0.76 M1 23.4 C6.47 17.11, 11.94 10.82, 20.68 0.76 M2.05 28.29 C9.07 20.22, 16.08 12.15, 25.67 1.12 M2.05 28.29 C9.17 20.1, 16.29 11.91, 25.67 1.12 M4.42 31.66 C13.32 21.42, 22.22 11.18, 29.35 2.99 M4.42 31.66 C9.55 25.76, 14.68 19.86, 29.35 2.99 M7.44 34.29 C14.09 26.63, 20.75 18.97, 33.02 4.86 M7.44 34.29 C15.66 24.82, 23.89 15.35, 33.02 4.86 M10.45 36.91 C20.58 25.27, 30.7 13.62, 36.04 7.48 M10.45 36.91 C19.69 26.29, 28.92 15.67, 36.04 7.48 M14.79 38.03 C23.73 27.74, 32.67 17.46, 38.4 10.86 M14.79 38.03 C21.96 29.78, 29.13 21.52, 38.4 10.86 M19.12 39.14 C26.71 30.41, 34.31 21.67, 40.11 14.99 M19.12 39.14 C25.12 32.23, 31.13 25.32, 40.11 14.99 M24.1 39.5 C29.59 33.19, 35.08 26.88, 39.85 21.39 M24.1 39.5 C28.63 34.3, 33.16 29.09, 39.85 21.39 M7.2 34.4 C7.2 34.4, 7.2 34.4, 7.2 34.4 M7.2 34.4 C7.2 34.4, 7.2 34.4, 7.2 34.4 M18.13 38.59 C13.61 34.67, 9.09 30.74, 1.52 24.16 M18.13 38.59 C14.7 35.62, 11.27 32.64, 1.52 24.16 M23.77 38.2 C17.21 32.5, 10.66 26.8, 0.37 17.86 M23.77 38.2 C17.05 32.36, 10.34 26.52, 0.37 17.86 M28.66 37.15 C21.64 31.04, 14.61 24.94, 1.49 13.53 M28.66 37.15 C20.84 30.35, 13.02 23.56, 1.49 13.53 M32.04 34.79 C21.74 25.84, 11.44 16.88, 2.6 9.2 M32.04 34.79 C22.7 26.67, 13.37 18.56, 2.6 9.2 M35.42 32.42 C28.7 26.59, 21.99 20.76, 5.23 6.18 M35.42 32.42 C27.8 25.8, 20.17 19.18, 5.23 6.18 M37.28 28.75 C26.33 19.23, 15.38 9.71, 8.61 3.82 M37.28 28.75 C30.79 23.1, 24.3 17.46, 8.61 3.82 M39.91 25.73 C31.96 18.82, 24 11.9, 11.98 1.46 M39.91 25.73 C31.11 18.08, 22.3 10.42, 11.98 1.46 M40.27 20.74 C34.41 15.65, 28.55 10.55, 16.87 0.4 M40.27 20.74 C34.98 16.14, 29.68 11.54, 16.87 0.4 M40.63 15.76 C33.86 9.87, 27.1 3.99, 22.52 0.01 M40.63 15.76 C33.66 9.7, 26.69 3.64, 22.52 0.01" stroke="#fab005" stroke-width="0.5" fill="none"></path><path d="M40.16 19.46 C40.16 20.59, 40.06 21.73, 39.86 22.84 C39.66 23.95, 39.35 25.06, 38.95 26.12 C38.55 27.18, 38.05 28.22, 37.47 29.19 C36.89 30.17, 36.21 31.11, 35.46 31.97 C34.72 32.84, 33.88 33.65, 32.99 34.37 C32.1 35.1, 31.13 35.76, 30.12 36.32 C29.12 36.88, 28.04 37.37, 26.95 37.75 C25.86 38.14, 24.71 38.44, 23.57 38.63 C22.42 38.83, 21.24 38.93, 20.08 38.93 C18.92 38.93, 17.74 38.83, 16.59 38.63 C15.45 38.44, 14.31 38.14, 13.21 37.75 C12.12 37.37, 11.05 36.88, 10.04 36.32 C9.03 35.76, 8.06 35.1, 7.17 34.37 C6.28 33.65, 5.45 32.84, 4.7 31.97 C3.95 31.11, 3.27 30.17, 2.69 29.19 C2.11 28.22, 1.61 27.18, 1.21 26.12 C0.81 25.06, 0.51 23.95, 0.31 22.84 C0.1 21.73, 0 20.59, 0 19.46 C0 18.34, 0.1 17.19, 0.31 16.08 C0.51 14.97, 0.81 13.87, 1.21 12.81 C1.61 11.75, 2.11 10.71, 2.69 9.73 C3.27 8.76, 3.95 7.82, 4.7 6.95 C5.45 6.09, 6.28 5.28, 7.17 4.55 C8.06 3.83, 9.03 3.17, 10.04 2.61 C11.05 2.04, 12.12 1.56, 13.21 1.17 C14.31 0.79, 15.45 0.49, 16.59 0.3 C17.74 0.1, 18.92 0, 20.08 0 C21.24 0, 22.42 0.1, 23.57 0.3 C24.71 0.49, 25.86 0.79, 26.95 1.17 C28.04 1.56, 29.12 2.04, 30.12 2.61 C31.13 3.17, 32.1 3.83, 32.99 4.55 C33.88 5.28, 34.72 6.09, 35.46 6.95 C36.21 7.82, 36.89 8.76, 37.47 9.73 C38.05 10.71, 38.55 11.75, 38.95 12.81 C39.35 13.87, 39.66 14.97, 39.86 16.08 C40.06 17.19, 40.11 18.9, 40.16 19.46 C40.21 20.03, 40.21 18.9, 40.16 19.46" stroke="#e67700" stroke-width="1" fill="none"></path></g><g stroke-opacity="0.6" fill-opacity="0.6" stroke-linecap="round" transform="translate(1173.2682384012596 325.3712209507703) rotate(0 20.081211706889462 19.463328269754186)"><path d="M4.81 6.83 C4.81 6.83, 4.81 6.83, 4.81 6.83 M4.81 6.83 C4.81 6.83, 4.81 6.83, 4.81 6.83 M0.61 17.75 C3.86 14.01, 7.12 10.26, 15.04 1.15 M0.61 17.75 C5.85 11.72, 11.1 5.68, 15.04 1.15 M1 23.4 C5.49 18.24, 9.97 13.08, 20.68 0.76 M1 23.4 C6.93 16.58, 12.86 9.75, 20.68 0.76 M2.05 28.29 C7.67 21.83, 13.29 15.37, 25.67 1.12 M2.05 28.29 C10.81 18.21, 19.57 8.13, 25.67 1.12 M4.42 31.66 C13.53 21.18, 22.65 10.69, 29.35 2.99 M4.42 31.66 C12.69 22.14, 20.97 12.62, 29.35 2.99 M7.44 34.29 C15.36 25.17, 23.29 16.05, 33.02 4.86 M7.44 34.29 C13.84 26.92, 20.25 19.55, 33.02 4.86 M10.45 36.91 C17.33 29.01, 24.2 21.1, 36.04 7.48 M10.45 36.91 C20.31 25.57, 30.17 14.24, 36.04 7.48 M14.79 38.03 C20.77 31.14, 26.76 24.26, 38.4 10.86 M14.79 38.03 C21.31 30.52, 27.84 23.01, 38.4 10.86 M19.12 39.14 C23.34 34.28, 27.57 29.42, 40.11 14.99 M19.12 39.14 C23.99 33.54, 28.86 27.94, 40.11 14.99 M24.1 39.5 C28.62 34.31, 33.13 29.11, 39.85 21.39 M24.1 39.5 C27.51 35.58, 30.92 31.66, 39.85 21.39 M7.2 34.4 C7.2 34.4, 7.2 34.4, 7.2 34.4 M7.2 34.4 C7.2 34.4, 7.2 34.4, 7.2 34.4 M18.13 38.59 C14.24 35.22, 10.35 31.84, 1.52 24.16 M18.13 38.59 C12.61 33.8, 7.09 29, 1.52 24.16 M23.77 38.2 C17.98 33.17, 12.2 28.14, 0.37 17.86 M23.77 38.2 C17.71 32.93, 11.65 27.66, 0.37 17.86 M28.66 37.15 C19.8 29.45, 10.95 21.75, 1.49 13.53 M28.66 37.15 C18.35 28.18, 8.03 19.22, 1.49 13.53 M32.04 34.79 C22.57 26.55, 13.1 18.32, 2.6 9.2 M32.04 34.79 C24.68 28.39, 17.32 22, 2.6 9.2 M35.42 32.42 C23.36 21.95, 11.31 11.47, 5.23 6.18 M35.42 32.42 C29.17 26.99, 22.92 21.56, 5.23 6.18 M37.28 28.75 C27.3 20.07, 17.31 11.38, 8.61 3.82 M37.28 28.75 C29.95 22.37, 22.61 15.99, 8.61 3.82 M39.91 25.73 C31.62 18.52, 23.33 11.32, 11.98 1.46 M39.91 25.73 C29.92 17.05, 19.93 8.36, 11.98 1.46 M40.27 20.74 C35.05 16.2, 29.83 11.67, 16.87 0.4 M40.27 20.74 C32.86 14.3, 25.45 7.86, 16.87 0.4 M40.63 15.76 C35.77 11.53, 30.91 7.31, 22.52 0.01 M40.63 15.76 C35.77 11.53, 30.91 7.31, 22.52 0.01" stroke="#fab005" stroke-width="0.5" fill="none"></path><path d="M40.16 19.46 C40.16 20.59, 40.06 21.73, 39.86 22.84 C39.66 23.95, 39.35 25.06, 38.95 26.12 C38.55 27.18, 38.05 28.22, 37.47 29.19 C36.89 30.17, 36.21 31.11, 35.46 31.97 C34.72 32.84, 33.88 33.65, 32.99 34.37 C32.1 35.1, 31.13 35.76, 30.12 36.32 C29.12 36.88, 28.04 37.37, 26.95 37.75 C25.86 38.14, 24.71 38.44, 23.57 38.63 C22.42 38.83, 21.24 38.93, 20.08 38.93 C18.92 38.93, 17.74 38.83, 16.59 38.63 C15.45 38.44, 14.31 38.14, 13.21 37.75 C12.12 37.37, 11.05 36.88, 10.04 36.32 C9.03 35.76, 8.06 35.1, 7.17 34.37 C6.28 33.65, 5.45 32.84, 4.7 31.97 C3.95 31.11, 3.27 30.17, 2.69 29.19 C2.11 28.22, 1.61 27.18, 1.21 26.12 C0.81 25.06, 0.51 23.95, 0.31 22.84 C0.1 21.73, 0 20.59, 0 19.46 C0 18.34, 0.1 17.19, 0.31 16.08 C0.51 14.97, 0.81 13.87, 1.21 12.81 C1.61 11.75, 2.11 10.71, 2.69 9.73 C3.27 8.76, 3.95 7.82, 4.7 6.95 C5.45 6.09, 6.28 5.28, 7.17 4.55 C8.06 3.83, 9.03 3.17, 10.04 2.61 C11.05 2.04, 12.12 1.56, 13.21 1.17 C14.31 0.79, 15.45 0.49, 16.59 0.3 C17.74 0.1, 18.92 0, 20.08 0 C21.24 0, 22.42 0.1, 23.57 0.3 C24.71 0.49, 25.86 0.79, 26.95 1.17 C28.04 1.56, 29.12 2.04, 30.12 2.61 C31.13 3.17, 32.1 3.83, 32.99 4.55 C33.88 5.28, 34.72 6.09, 35.46 6.95 C36.21 7.82, 36.89 8.76, 37.47 9.73 C38.05 10.71, 38.55 11.75, 38.95 12.81 C39.35 13.87, 39.66 14.97, 39.86 16.08 C40.06 17.19, 40.11 18.9, 40.16 19.46 C40.21 20.03, 40.21 18.9, 40.16 19.46" stroke="#e67700" stroke-width="1" fill="none"></path></g><g stroke-opacity="0.6" fill-opacity="0.6" stroke-linecap="round" transform="translate(1171.7853181521614 103.0920599902471) rotate(0 20.081211706889462 19.463328269754186)"><path d="M4.81 6.83 C4.81 6.83, 4.81 6.83, 4.81 6.83 M4.81 6.83 C4.81 6.83, 4.81 6.83, 4.81 6.83 M0.61 17.75 C4.12 13.71, 7.64 9.66, 15.04 1.15 M0.61 17.75 C3.63 14.28, 6.65 10.81, 15.04 1.15 M1 23.4 C8.05 15.29, 15.1 7.18, 20.68 0.76 M1 23.4 C5.94 17.71, 10.88 12.03, 20.68 0.76 M2.05 28.29 C10.44 18.64, 18.82 9, 25.67 1.12 M2.05 28.29 C10.33 18.77, 18.6 9.25, 25.67 1.12 M4.42 31.66 C11.66 23.34, 18.9 15.01, 29.35 2.99 M4.42 31.66 C11.32 23.73, 18.22 15.79, 29.35 2.99 M7.44 34.29 C17.59 22.61, 27.75 10.92, 33.02 4.86 M7.44 34.29 C15.58 24.92, 23.73 15.55, 33.02 4.86 M10.45 36.91 C20.55 25.3, 30.64 13.69, 36.04 7.48 M10.45 36.91 C19.89 26.06, 29.33 15.2, 36.04 7.48 M14.79 38.03 C19.59 32.5, 24.4 26.97, 38.4 10.86 M14.79 38.03 C19.88 32.17, 24.97 26.31, 38.4 10.86 M19.12 39.14 C24.52 32.93, 29.92 26.71, 40.11 14.99 M19.12 39.14 C23.87 33.67, 28.63 28.2, 40.11 14.99 M24.1 39.5 C27.48 35.62, 30.86 31.73, 39.85 21.39 M24.1 39.5 C27.85 35.19, 31.6 30.88, 39.85 21.39 M7.2 34.4 C7.2 34.4, 7.2 34.4, 7.2 34.4 M7.2 34.4 C7.2 34.4, 7.2 34.4, 7.2 34.4 M18.13 38.59 C13.54 34.61, 8.95 30.62, 1.52 24.16 M18.13 38.59 C13.55 34.62, 8.98 30.64, 1.52 24.16 M23.77 38.2 C18.21 33.37, 12.65 28.53, 0.37 17.86 M23.77 38.2 C16.67 32.03, 9.57 25.86, 0.37 17.86 M28.66 37.15 C22.1 31.45, 15.55 25.76, 1.49 13.53 M28.66 37.15 C20.2 29.8, 11.75 22.45, 1.49 13.53 M32.04 34.79 C21.44 25.57, 10.84 16.36, 2.6 9.2 M32.04 34.79 C20.57 24.82, 9.1 14.85, 2.6 9.2 M35.42 32.42 C24.31 22.77, 13.21 13.12, 5.23 6.18 M35.42 32.42 C28.69 26.58, 21.97 20.73, 5.23 6.18 M37.28 28.75 C30.09 22.49, 22.89 16.24, 8.61 3.82 M37.28 28.75 C26.52 19.39, 15.75 10.03, 8.61 3.82 M39.91 25.73 C30.94 17.93, 21.97 10.14, 11.98 1.46 M39.91 25.73 C29.27 16.48, 18.64 7.24, 11.98 1.46 M40.27 20.74 C32.59 14.07, 24.91 7.39, 16.87 0.4 M40.27 20.74 C34.92 16.1, 29.58 11.45, 16.87 0.4 M40.63 15.76 C33.88 9.89, 27.14 4.03, 22.52 0.01 M40.63 15.76 C36.09 11.81, 31.55 7.87, 22.52 0.01" stroke="#fab005" stroke-width="0.5" fill="none"></path><path d="M40.16 19.46 C40.16 20.59, 40.06 21.73, 39.86 22.84 C39.66 23.95, 39.35 25.06, 38.95 26.12 C38.55 27.18, 38.05 28.22, 37.47 29.19 C36.89 30.17, 36.21 31.11, 35.46 31.97 C34.72 32.84, 33.88 33.65, 32.99 34.37 C32.1 35.1, 31.13 35.76, 30.12 36.32 C29.12 36.88, 28.04 37.37, 26.95 37.75 C25.86 38.14, 24.71 38.44, 23.57 38.63 C22.42 38.83, 21.24 38.93, 20.08 38.93 C18.92 38.93, 17.74 38.83, 16.59 38.63 C15.45 38.44, 14.31 38.14, 13.21 37.75 C12.12 37.37, 11.05 36.88, 10.04 36.32 C9.03 35.76, 8.06 35.1, 7.17 34.37 C6.28 33.65, 5.45 32.84, 4.7 31.97 C3.95 31.11, 3.27 30.17, 2.69 29.19 C2.11 28.22, 1.61 27.18, 1.21 26.12 C0.81 25.06, 0.51 23.95, 0.31 22.84 C0.1 21.73, 0 20.59, 0 19.46 C0 18.34, 0.1 17.19, 0.31 16.08 C0.51 14.97, 0.81 13.87, 1.21 12.81 C1.61 11.75, 2.11 10.71, 2.69 9.73 C3.27 8.76, 3.95 7.82, 4.7 6.95 C5.45 6.09, 6.28 5.28, 7.17 4.55 C8.06 3.83, 9.03 3.17, 10.04 2.61 C11.05 2.04, 12.12 1.56, 13.21 1.17 C14.31 0.79, 15.45 0.49, 16.59 0.3 C17.74 0.1, 18.92 0, 20.08 0 C21.24 0, 22.42 0.1, 23.57 0.3 C24.71 0.49, 25.86 0.79, 26.95 1.17 C28.04 1.56, 29.12 2.04, 30.12 2.61 C31.13 3.17, 32.1 3.83, 32.99 4.55 C33.88 5.28, 34.72 6.09, 35.46 6.95 C36.21 7.82, 36.89 8.76, 37.47 9.73 C38.05 10.71, 38.55 11.75, 38.95 12.81 C39.35 13.87, 39.66 14.97, 39.86 16.08 C40.06 17.19, 40.11 18.9, 40.16 19.46 C40.21 20.03, 40.21 18.9, 40.16 19.46" stroke="#e67700" stroke-width="1" fill="none"></path></g><g stroke-linecap="round"><g stroke-opacity="0.6" fill-opacity="0.6" transform="translate(1122.7572987502417 248.9302851170944) rotate(0 29.021475219220065 40.87549258295041)"><path d="M0 0 C22.99 32.38, 45.98 64.76, 58.04 81.75 M0 0 C12.53 17.65, 25.06 35.3, 58.04 81.75" stroke="#e67700" stroke-width="1" fill="none"></path></g></g><mask></mask><g stroke-linecap="round"><g stroke-opacity="0.6" fill-opacity="0.6" transform="translate(1135.1986237926458 229.075116856622) rotate(0 18.06704397238036 1.436475928711701)"><path d="M0 0 C7.85 0.62, 15.71 1.25, 36.13 2.87 M0 0 C10.34 0.82, 20.68 1.64, 36.13 2.87" stroke="#e67700" stroke-width="1" fill="none"></path></g></g><mask></mask><g stroke-linecap="round"><g stroke-opacity="0.6" fill-opacity="0.6" transform="translate(1125.920704555986 210.89341490429211) rotate(0 27.62639562140157 -35.380495743414855)"><path d="M0 0 C12.02 -15.39, 24.03 -30.78, 55.25 -70.76 M0 0 C11.6 -14.86, 23.21 -29.72, 55.25 -70.76" stroke="#e67700" stroke-width="1" fill="none"></path></g></g><mask></mask><g transform="translate(1076.025252686918 472.8217716827089) rotate(0 80.908935546875 46.812025459194274)"><text x="80.908935546875" y="0" font-family="Helvetica, Segoe UI Emoji" font-size="40.70610909495154px" fill="#000000" text-anchor="middle" style="white-space: pre;" direction="ltr" dominant-baseline="text-before-edge">Load</text><text x="80.908935546875" y="46.812025459194274" font-family="Helvetica, Segoe UI Emoji" font-size="40.70610909495154px" fill="#000000" text-anchor="middle" style="white-space: pre;" direction="ltr" dominant-baseline="text-before-edge">Balancer</text></g><g stroke-linecap="round" transform="translate(160.75783878885704 120.68628259296543) rotate(95.96448710125308 12.726803195017055 11.817745823944506)"><path d="M25.45 11.82 C25.45 12.5, 25.39 13.2, 25.26 13.87 C25.13 14.54, 24.94 15.22, 24.69 15.86 C24.43 16.5, 24.12 17.13, 23.75 17.73 C23.38 18.32, 22.95 18.89, 22.48 19.41 C22 19.94, 21.47 20.43, 20.91 20.87 C20.34 21.31, 19.73 21.71, 19.09 22.05 C18.45 22.39, 17.77 22.69, 17.08 22.92 C16.39 23.16, 15.66 23.34, 14.94 23.46 C14.21 23.57, 13.46 23.64, 12.73 23.64 C11.99 23.64, 11.24 23.57, 10.52 23.46 C9.79 23.34, 9.07 23.16, 8.37 22.92 C7.68 22.69, 7 22.39, 6.36 22.05 C5.73 21.71, 5.11 21.31, 4.55 20.87 C3.98 20.43, 3.45 19.94, 2.98 19.41 C2.5 18.89, 2.07 18.32, 1.71 17.73 C1.34 17.13, 1.02 16.5, 0.77 15.86 C0.52 15.22, 0.32 14.54, 0.19 13.87 C0.07 13.2, 0 12.5, 0 11.82 C0 11.13, 0.07 10.44, 0.19 9.77 C0.32 9.09, 0.52 8.42, 0.77 7.78 C1.02 7.13, 1.34 6.5, 1.71 5.91 C2.07 5.32, 2.5 4.75, 2.98 4.22 C3.45 3.7, 3.98 3.2, 4.55 2.76 C5.11 2.33, 5.73 1.93, 6.36 1.58 C7 1.24, 7.68 0.95, 8.37 0.71 C9.07 0.48, 9.79 0.3, 10.52 0.18 C11.24 0.06, 11.99 0, 12.73 0 C13.46 0, 14.21 0.06, 14.94 0.18 C15.66 0.3, 16.39 0.48, 17.08 0.71 C17.77 0.95, 18.45 1.24, 19.09 1.58 C19.73 1.93, 20.34 2.33, 20.91 2.76 C21.47 3.2, 22 3.7, 22.48 4.22 C22.95 4.75, 23.38 5.32, 23.75 5.91 C24.12 6.5, 24.43 7.13, 24.69 7.78 C24.94 8.42, 25.13 9.09, 25.26 9.77 C25.39 10.44, 25.42 11.48, 25.45 11.82 C25.49 12.16, 25.49 11.48, 25.45 11.82" stroke="#000000" stroke-width="1" fill="none"></path></g><g stroke-linecap="round"><g transform="translate(131.7088471461866 99.44899698881682) rotate(95.96448710125308 0.7666088769929047 28.391309014250794)"><path d="M0 0 C0.26 9.46, 1.28 47.32, 1.53 56.78 M0 0 C0.26 9.46, 1.28 47.32, 1.53 56.78" stroke="#000000" stroke-width="1" fill="none"></path></g></g><mask></mask><g stroke-linecap="round" transform="translate(8.820135483874765 110.83864789442441) rotate(89.86737157398699 13.317247389551994 12.106588535955979)"><path d="M0 0 C0 0, 0 0, 0 0 M0 0 C0 0, 0 0, 0 0 M-0.26 6.4 C1.68 4.17, 3.62 1.93, 4.99 0.36 M-0.26 6.4 C1.39 4.5, 3.04 2.6, 4.99 0.36 M0.13 12.04 C2.52 9.29, 4.91 6.55, 10.63 -0.03 M0.13 12.04 C2.91 8.84, 5.69 5.65, 10.63 -0.03 M-0.13 18.44 C5.14 12.38, 10.4 6.33, 15.62 0.33 M-0.13 18.44 C6 11.39, 12.12 4.35, 15.62 0.33 M0.27 24.08 C7.83 15.38, 15.4 6.67, 21.26 -0.07 M0.27 24.08 C4.82 18.85, 9.36 13.62, 21.26 -0.07 M5.25 24.44 C11.68 17.05, 18.11 9.65, 26.25 0.29 M5.25 24.44 C13.65 14.78, 22.04 5.13, 26.25 0.29 M10.9 24.05 C17.01 17.01, 23.13 9.97, 27.3 5.18 M10.9 24.05 C15.66 18.57, 20.43 13.08, 27.3 5.18 M15.88 24.41 C19.63 20.1, 23.37 15.79, 27.04 11.58 M15.88 24.41 C18.32 21.6, 20.76 18.79, 27.04 11.58 M21.53 24.01 C22.79 22.55, 24.06 21.1, 27.43 17.22 M21.53 24.01 C23.13 22.17, 24.73 20.33, 27.43 17.22 M0.09 24.29 C0.09 24.29, 0.09 24.29, 0.09 24.29 M0.09 24.29 C0.09 24.29, 0.09 24.29, 0.09 24.29 M5.73 23.89 C3.56 22.01, 1.4 20.13, -0.31 18.65 M5.73 23.89 C4.25 22.6, 2.76 21.31, -0.31 18.65 M12.13 24.16 C8.05 20.61, 3.98 17.07, 0.05 13.66 M12.13 24.16 C8.2 20.74, 4.27 17.32, 0.05 13.66 M18.53 24.42 C12.82 19.46, 7.12 14.51, -0.34 8.02 M18.53 24.42 C12.83 19.47, 7.14 14.52, -0.34 8.02 M24.17 24.02 C17.46 18.19, 10.76 12.36, 0.02 3.03 M24.17 24.02 C18.99 19.52, 13.81 15.02, 0.02 3.03 M26.79 21 C20.2 15.27, 13.61 9.54, 1.89 -0.65 M26.79 21 C21.09 16.04, 15.38 11.09, 1.89 -0.65 M27.15 16.02 C23.15 12.53, 19.14 9.05, 8.28 -0.39 M27.15 16.02 C21.23 10.87, 15.31 5.72, 8.28 -0.39 M26.76 10.37 C23.04 7.14, 19.32 3.91, 13.93 -0.78 M26.76 10.37 C23.95 7.93, 21.14 5.49, 13.93 -0.78 M27.12 5.39 C25.36 3.86, 23.6 2.33, 20.33 -0.52 M27.12 5.39 C24.72 3.3, 22.32 1.21, 20.33 -0.52" stroke="#fd7e14" stroke-width="0.5" fill="none"></path><path d="M0 0 C9.57 0, 19.14 0, 26.63 0 M0 0 C8.38 0, 16.77 0, 26.63 0 M26.63 0 C26.63 7.9, 26.63 15.81, 26.63 24.21 M26.63 0 C26.63 8.36, 26.63 16.71, 26.63 24.21 M26.63 24.21 C20.83 24.21, 15.02 24.21, 0 24.21 M26.63 24.21 C18.78 24.21, 10.93 24.21, 0 24.21 M0 24.21 C0 18.53, 0 12.84, 0 0 M0 24.21 C0 18.02, 0 11.82, 0 0" stroke="#000000" stroke-width="1" fill="none"></path></g><g stroke-linecap="round"><g transform="translate(66.52150910003911 92.33688275648069) rotate(95.96448710125308 3.7261036298696126 33.81798337267281)"><path d="M0 0 C1.24 11.27, 6.21 56.36, 7.45 67.64 M0 0 C1.24 11.27, 6.21 56.36, 7.45 67.64" stroke="#000000" stroke-width="1" fill="none"></path></g></g><mask></mask><g stroke-linecap="round" transform="translate(160.75783878885704 277.35294925963217) rotate(95.96448710125308 12.726803195017055 11.817745823944492)"><path d="M25.45 11.82 C25.45 12.5, 25.39 13.2, 25.26 13.87 C25.13 14.54, 24.94 15.22, 24.69 15.86 C24.43 16.5, 24.12 17.13, 23.75 17.73 C23.38 18.32, 22.95 18.89, 22.48 19.41 C22 19.94, 21.47 20.43, 20.91 20.87 C20.34 21.31, 19.73 21.71, 19.09 22.05 C18.45 22.39, 17.77 22.69, 17.08 22.92 C16.39 23.16, 15.66 23.34, 14.94 23.46 C14.21 23.57, 13.46 23.64, 12.73 23.64 C11.99 23.64, 11.24 23.57, 10.52 23.46 C9.79 23.34, 9.07 23.16, 8.37 22.92 C7.68 22.69, 7 22.39, 6.36 22.05 C5.73 21.71, 5.11 21.31, 4.55 20.87 C3.98 20.43, 3.45 19.94, 2.98 19.41 C2.5 18.89, 2.07 18.32, 1.71 17.73 C1.34 17.13, 1.02 16.5, 0.77 15.86 C0.52 15.22, 0.32 14.54, 0.19 13.87 C0.07 13.2, 0 12.5, 0 11.82 C0 11.13, 0.07 10.44, 0.19 9.77 C0.32 9.09, 0.52 8.42, 0.77 7.78 C1.02 7.13, 1.34 6.5, 1.71 5.91 C2.07 5.32, 2.5 4.75, 2.98 4.22 C3.45 3.7, 3.98 3.2, 4.55 2.76 C5.11 2.33, 5.73 1.93, 6.36 1.58 C7 1.24, 7.68 0.95, 8.37 0.71 C9.07 0.48, 9.79 0.3, 10.52 0.18 C11.24 0.06, 11.99 0, 12.73 0 C13.46 0, 14.21 0.06, 14.94 0.18 C15.66 0.3, 16.39 0.48, 17.08 0.71 C17.77 0.95, 18.45 1.24, 19.09 1.58 C19.73 1.93, 20.34 2.33, 20.91 2.76 C21.47 3.2, 22 3.7, 22.48 4.22 C22.95 4.75, 23.38 5.32, 23.75 5.91 C24.12 6.5, 24.43 7.13, 24.69 7.78 C24.94 8.42, 25.13 9.09, 25.26 9.77 C25.39 10.44, 25.42 11.48, 25.45 11.82 C25.49 12.16, 25.49 11.48, 25.45 11.82" stroke="#000000" stroke-width="1" fill="none"></path></g><g stroke-linecap="round"><g transform="translate(131.7088471461866 256.11566365548356) rotate(95.96448710125308 0.7666088769929047 28.39130901425078)"><path d="M0 0 C0.26 9.46, 1.28 47.32, 1.53 56.78 M0 0 C0.26 9.46, 1.28 47.32, 1.53 56.78" stroke="#000000" stroke-width="1" fill="none"></path></g></g><mask></mask><g stroke-linecap="round" transform="translate(8.820135483874765 267.50531456109115) rotate(89.86737157398699 13.317247389551994 12.106588535955979)"><path d="M0 0 C0 0, 0 0, 0 0 M0 0 C0 0, 0 0, 0 0 M-0.26 6.4 C1.68 4.17, 3.61 1.94, 4.99 0.36 M-0.26 6.4 C1.62 4.23, 3.51 2.06, 4.99 0.36 M0.13 12.04 C2.71 9.07, 5.29 6.11, 10.63 -0.03 M0.13 12.04 C3.67 7.97, 7.21 3.89, 10.63 -0.03 M-0.13 18.44 C5 12.54, 10.12 6.65, 15.62 0.33 M-0.13 18.44 C4.63 12.97, 9.39 7.49, 15.62 0.33 M0.27 24.08 C6.6 16.79, 12.94 9.51, 21.26 -0.07 M0.27 24.08 C6.1 17.38, 11.92 10.67, 21.26 -0.07 M5.25 24.44 C9.76 19.26, 14.26 14.08, 26.25 0.29 M5.25 24.44 C10.81 18.05, 16.37 11.66, 26.25 0.29 M10.9 24.05 C14.65 19.73, 18.41 15.4, 27.3 5.18 M10.9 24.05 C14.38 20.04, 17.86 16.03, 27.3 5.18 M15.88 24.41 C19.38 20.38, 22.89 16.35, 27.04 11.58 M15.88 24.41 C19.12 20.69, 22.35 16.97, 27.04 11.58 M21.53 24.01 C22.82 22.53, 24.11 21.04, 27.43 17.22 M21.53 24.01 C23.06 22.25, 24.59 20.49, 27.43 17.22 M0.09 24.29 C0.09 24.29, 0.09 24.29, 0.09 24.29 M0.09 24.29 C0.09 24.29, 0.09 24.29, 0.09 24.29 M5.73 23.89 C3.53 21.98, 1.33 20.07, -0.31 18.65 M5.73 23.89 C4.47 22.8, 3.21 21.7, -0.31 18.65 M12.13 24.16 C9.55 21.91, 6.96 19.67, 0.05 13.66 M12.13 24.16 C9.47 21.84, 6.81 19.53, 0.05 13.66 M18.53 24.42 C11.75 18.53, 4.98 12.64, -0.34 8.02 M18.53 24.42 C14.24 20.7, 9.96 16.97, -0.34 8.02 M24.17 24.02 C18.66 19.24, 13.16 14.45, 0.02 3.03 M24.17 24.02 C18.63 19.21, 13.09 14.4, 0.02 3.03 M26.79 21 C16.84 12.35, 6.89 3.71, 1.89 -0.65 M26.79 21 C18.06 13.41, 9.33 5.82, 1.89 -0.65 M27.15 16.02 C21.87 11.42, 16.58 6.83, 8.28 -0.39 M27.15 16.02 C21.31 10.94, 15.47 5.86, 8.28 -0.39 M26.76 10.37 C23.13 7.22, 19.49 4.06, 13.93 -0.78 M26.76 10.37 C21.73 6, 16.7 1.63, 13.93 -0.78 M27.12 5.39 C25.04 3.58, 22.96 1.77, 20.33 -0.52 M27.12 5.39 C24.93 3.49, 22.74 1.58, 20.33 -0.52" stroke="#fd7e14" stroke-width="0.5" fill="none"></path><path d="M0 0 C5.77 0, 11.54 0, 26.63 0 M0 0 C8.15 0, 16.31 0, 26.63 0 M26.63 0 C26.63 9.68, 26.63 19.36, 26.63 24.21 M26.63 0 C26.63 9.03, 26.63 18.06, 26.63 24.21 M26.63 24.21 C18.9 24.21, 11.16 24.21, 0 24.21 M26.63 24.21 C17.69 24.21, 8.75 24.21, 0 24.21 M0 24.21 C0 18.91, 0 13.62, 0 0 M0 24.21 C0 19.02, 0 13.82, 0 0" stroke="#000000" stroke-width="1" fill="none"></path></g><g stroke-linecap="round"><g transform="translate(66.52150910003911 249.00354942314743) rotate(95.96448710125308 3.7261036298696126 33.81798337267283)"><path d="M0 0 C1.24 11.27, 6.21 56.36, 7.45 67.64 M0 0 C1.24 11.27, 6.21 56.36, 7.45 67.64" stroke="#000000" stroke-width="1" fill="none"></path></g></g><mask></mask><g stroke-linecap="round"><g transform="translate(516.17254976192 216.19129871289965) rotate(0 272.7558016527041 -0.36413745767572436)"><path d="M0 0 C121.11 -0.16, 242.23 -0.32, 545.51 -0.73 M0 0 C143.55 -0.19, 287.09 -0.38, 545.51 -0.73" stroke="#1e1e1e" stroke-width="2" fill="none"></path></g><g transform="translate(516.17254976192 216.19129871289965) rotate(0 272.7558016527041 -0.36413745767572436)"><path d="M522.03 7.85 C527.24 5.95, 532.46 4.04, 545.51 -0.73 M522.03 7.85 C528.21 5.6, 534.39 3.34, 545.51 -0.73" stroke="#1e1e1e" stroke-width="2" fill="none"></path></g><g transform="translate(516.17254976192 216.19129871289965) rotate(0 272.7558016527041 -0.36413745767572436)"><path d="M522.01 -9.25 C527.23 -7.36, 532.44 -5.46, 545.51 -0.73 M522.01 -9.25 C528.19 -7.01, 534.38 -4.76, 545.51 -0.73" stroke="#1e1e1e" stroke-width="2" fill="none"></path></g></g><mask></mask><g stroke-linecap="round"><g transform="translate(1276.3162914810255 138.54030330124374) rotate(0 409.36720840949465 -5.163551117716764)"><path d="M0 0 C136.46 -1.72, 682.28 -8.61, 818.73 -10.33 M0 0 C136.46 -1.72, 682.28 -8.61, 818.73 -10.33" stroke="#1e1e1e" stroke-width="1" fill="none"></path></g><g transform="translate(1276.3162914810255 138.54030330124374) rotate(0 409.36720840949465 -5.163551117716764)"><path d="M795.35 -1.48 C803.63 -4.61, 811.92 -7.75, 818.73 -10.33 M795.35 -1.48 C801.82 -3.93, 808.29 -6.37, 818.73 -10.33" stroke="#1e1e1e" stroke-width="1" fill="none"></path></g><g transform="translate(1276.3162914810255 138.54030330124374) rotate(0 409.36720840949465 -5.163551117716764)"><path d="M795.14 -18.58 C803.5 -15.66, 811.86 -12.73, 818.73 -10.33 M795.14 -18.58 C801.66 -16.3, 808.19 -14.02, 818.73 -10.33" stroke="#1e1e1e" stroke-width="1" fill="none"></path></g></g><mask></mask><g transform="translate(1537.090039189895 219.21033417341835) rotate(0 132.2890625 16.099999999999994)"><text x="0" y="0" font-family="Helvetica, Segoe UI Emoji" font-size="28px" fill="#1e1e1e" text-anchor="start" style="white-space: pre;" direction="ltr" dominant-baseline="text-before-edge">Request confirmation</text></g><g stroke-linecap="round"><g transform="translate(1271.9716270546432 286.30354142787917) rotate(0 411.01185504263594 -0.19275485334077302)"><path d="M0 0 C137 -0.06, 685.02 -0.32, 822.02 -0.39 M0 0 C137 -0.06, 685.02 -0.32, 822.02 -0.39" stroke="#1e1e1e" stroke-width="1" fill="none"></path></g><g transform="translate(1271.9716270546432 286.30354142787917) rotate(0 411.01185504263594 -0.19275485334077302)"><path d="M798.54 8.18 C803.45 6.38, 808.37 4.59, 822.02 -0.39 M798.54 8.18 C803.27 6.45, 808.01 4.72, 822.02 -0.39" stroke="#1e1e1e" stroke-width="1" fill="none"></path></g><g transform="translate(1271.9716270546432 286.30354142787917) rotate(0 411.01185504263594 -0.19275485334077302)"><path d="M798.53 -8.92 C803.45 -7.14, 808.37 -5.35, 822.02 -0.39 M798.53 -8.92 C803.27 -7.2, 808 -5.48, 822.02 -0.39" stroke="#1e1e1e" stroke-width="1" fill="none"></path></g></g><mask></mask><g transform="translate(1519.0032864945706 82.30850080772598) rotate(0 109.73046875 16.099999999999994)"><text x="0" y="0" font-family="Helvetica, Segoe UI Emoji" font-size="28px" fill="#1e1e1e" text-anchor="start" style="white-space: pre;" direction="ltr" dominant-baseline="text-before-edge">Request payment</text></g><g transform="translate(692.9240742470565 160.21101944509928) rotate(0 109.73046875 16.099999999999994)"><text x="0" y="0" font-family="Helvetica, Segoe UI Emoji" font-size="28px" fill="#1e1e1e" text-anchor="start" style="white-space: pre;" direction="ltr" dominant-baseline="text-before-edge">Request payment</text></g><g transform="translate(703.2584131598978 265.4684039661986) rotate(0 132.2890625 16.099999999999994)"><text x="0" y="0" font-family="Helvetica, Segoe UI Emoji" font-size="28px" fill="#1e1e1e" text-anchor="start" style="white-space: pre;" direction="ltr" dominant-baseline="text-before-edge">Request confirmation</text></g></svg>